<svg id="visual" viewBox="0 0 900 600" width="900" height="600" xmlns="http://www.w3.org/2000/svg" xmlns:xlink="http://www.w3.org/1999/xlink" version="1.1"><rect x="0" y="0" width="900" height="600" fill="#001220"></rect><path d="M0 85L8.8 92.8C17.7 100.7 35.3 116.3 53 119.8C70.7 123.3 88.3 114.7 106 107.8C123.7 101 141.3 96 159 97.7C176.7 99.3 194.3 107.7 212 120.3C229.7 133 247.3 150 265 163.2C282.7 176.3 300.3 185.7 318 180.2C335.7 174.7 353.3 154.3 371 140.7C388.7 127 406.3 120 423.8 121C441.3 122 458.7 131 476.2 130.5C493.7 130 511.3 120 529 128.7C546.7 137.3 564.3 164.7 582 171.8C599.7 179 617.3 166 635 154.5C652.7 143 670.3 133 688 142C705.7 151 723.3 179 741 178.8C758.7 178.7 776.3 150.3 794 146.2C811.7 142 829.3 162 847 178.2C864.7 194.3 882.3 206.7 891.2 212.8L900 219L900 0L891.2 0C882.3 0 864.7 0 847 0C829.3 0 811.7 0 794 0C776.3 0 758.7 0 741 0C723.3 0 705.7 0 688 0C670.3 0 652.7 0 635 0C617.3 0 599.7 0 582 0C564.3 0 546.7 0 529 0C511.3 0 493.7 0 476.2 0C458.7 0 441.3 0 423.8 0C406.3 0 388.7 0 371 0C353.3 0 335.7 0 318 0C300.3 0 282.7 0 265 0C247.3 0 229.7 0 212 0C194.3 0 176.7 0 159 0C141.3 0 123.7 0 106 0C88.3 0 70.7 0 53 0C35.3 0 17.7 0 8.8 0L0 0Z" fill="#2d0094"></path><path d="M0 80L8.8 97.2C17.7 114.3 35.3 148.7 53 158.2C70.7 167.7 88.3 152.3 106 146.7C123.7 141 141.3 145 159 134.7C176.7 124.3 194.3 99.7 212 102.7C229.7 105.7 247.3 136.3 265 145.3C282.7 154.3 300.3 141.7 318 139.7C335.7 137.7 353.3 146.3 371 150.7C388.7 155 406.3 155 423.8 145.3C441.3 135.7 458.7 116.3 476.2 103.3C493.7 90.3 511.3 83.7 529 85.3C546.7 87 564.3 97 582 102.3C599.7 107.7 617.3 108.3 635 116.2C652.7 124 670.3 139 688 131.3C705.7 123.7 723.3 93.3 741 87C758.7 80.7 776.3 98.3 794 111.3C811.7 124.3 829.3 132.7 847 127.3C864.7 122 882.3 103 891.2 93.5L900 84L900 0L891.2 0C882.3 0 864.7 0 847 0C829.3 0 811.7 0 794 0C776.3 0 758.7 0 741 0C723.3 0 705.7 0 688 0C670.3 0 652.7 0 635 0C617.3 0 599.7 0 582 0C564.3 0 546.7 0 529 0C511.3 0 493.7 0 476.2 0C458.7 0 441.3 0 423.8 0C406.3 0 388.7 0 371 0C353.3 0 335.7 0 318 0C300.3 0 282.7 0 265 0C247.3 0 229.7 0 212 0C194.3 0 176.7 0 159 0C141.3 0 123.7 0 106 0C88.3 0 70.7 0 53 0C35.3 0 17.7 0 8.8 0L0 0Z" fill="#002082"></path><path d="M0 145L8.8 129.2C17.7 113.3 35.3 81.7 53 69.3C70.7 57 88.3 64 106 70.5C123.7 77 141.3 83 159 87.5C176.7 92 194.3 95 212 87.7C229.7 80.3 247.3 62.7 265 56.3C282.7 50 300.3 55 318 60.2C335.7 65.3 353.3 70.7 371 80.2C388.7 89.7 406.3 103.3 423.8 105.8C441.3 108.3 458.7 99.7 476.2 92.7C493.7 85.7 511.3 80.3 529 79.5C546.7 78.7 564.3 82.3 582 79.7C599.7 77 617.3 68 635 67.2C652.7 66.3 670.3 73.7 688 75.8C705.7 78 723.3 75 741 81.8C758.7 88.7 776.3 105.3 794 111.3C811.7 117.3 829.3 112.7 847 100.3C864.7 88 882.3 68 891.2 58L900 48L900 0L891.2 0C882.3 0 864.7 0 847 0C829.3 0 811.7 0 794 0C776.3 0 758.7 0 741 0C723.3 0 705.7 0 688 0C670.3 0 652.7 0 635 0C617.3 0 599.7 0 582 0C564.3 0 546.7 0 529 0C511.3 0 493.7 0 476.2 0C458.7 0 441.3 0 423.8 0C406.3 0 388.7 0 371 0C353.3 0 335.7 0 318 0C300.3 0 282.7 0 265 0C247.3 0 229.7 0 212 0C194.3 0 176.7 0 159 0C141.3 0 123.7 0 106 0C88.3 0 70.7 0 53 0C35.3 0 17.7 0 8.8 0L0 0Z" fill="#002969"></path><path d="M0 49L8.8 48.3C17.7 47.7 35.3 46.3 53 44C70.7 41.7 88.3 38.3 106 43.7C123.7 49 141.3 63 159 63.8C176.7 64.7 194.3 52.3 212 45.7C229.7 39 247.3 38 265 49.3C282.7 60.7 300.3 84.3 318 82.7C335.7 81 353.3 54 371 51.3C388.7 48.7 406.3 70.3 423.8 75.7C441.3 81 458.7 70 476.2 61.2C493.7 52.3 511.3 45.7 529 49.8C546.7 54 564.3 69 582 72.5C599.7 76 617.3 68 635 59.2C652.7 50.3 670.3 40.7 688 44C705.7 47.3 723.3 63.7 741 70.8C758.7 78 776.3 76 794 75.2C811.7 74.3 829.3 74.7 847 78.7C864.7 82.7 882.3 90.3 891.2 94.2L900 98L900 0L891.2 0C882.3 0 864.7 0 847 0C829.3 0 811.7 0 794 0C776.3 0 758.7 0 741 0C723.3 0 705.7 0 688 0C670.3 0 652.7 0 635 0C617.3 0 599.7 0 582 0C564.3 0 546.7 0 529 0C511.3 0 493.7 0 476.2 0C458.7 0 441.3 0 423.8 0C406.3 0 388.7 0 371 0C353.3 0 335.7 0 318 0C300.3 0 282.7 0 265 0C247.3 0 229.7 0 212 0C194.3 0 176.7 0 159 0C141.3 0 123.7 0 106 0C88.3 0 70.7 0 53 0C35.3 0 17.7 0 8.8 0L0 0Z" fill="#072a4a"></path><path d="M0 70L8.8 67.8C17.7 65.7 35.3 61.3 53 59.3C70.7 57.3 88.3 57.7 106 58.5C123.7 59.3 141.3 60.7 159 53.5C176.7 46.3 194.3 30.7 212 27.5C229.7 24.3 247.3 33.7 265 34C282.7 34.3 300.3 25.7 318 23.3C335.7 21 353.3 25 371 28.7C388.7 32.3 406.3 35.7 423.8 41.5C441.3 47.3 458.7 55.7 476.2 51.5C493.7 47.3 511.3 30.7 529 30.5C546.7 30.3 564.3 46.7 582 55.3C599.7 64 617.3 65 635 57C652.7 49 670.3 32 688 27.5C705.7 23 723.3 31 741 31.2C758.7 31.3 776.3 23.7 794 23C811.7 22.3 829.3 28.7 847 32.2C864.7 35.7 882.3 36.3 891.2 36.7L900 37L900 0L891.2 0C882.3 0 864.7 0 847 0C829.3 0 811.7 0 794 0C776.3 0 758.7 0 741 0C723.3 0 705.7 0 688 0C670.3 0 652.7 0 635 0C617.3 0 599.7 0 582 0C564.3 0 546.7 0 529 0C511.3 0 493.7 0 476.2 0C458.7 0 441.3 0 423.8 0C406.3 0 388.7 0 371 0C353.3 0 335.7 0 318 0C300.3 0 282.7 0 265 0C247.3 0 229.7 0 212 0C194.3 0 176.7 0 159 0C141.3 0 123.7 0 106 0C88.3 0 70.7 0 53 0C35.3 0 17.7 0 8.8 0L0 0Z" fill="#212529"></path></svg>